<svg xmlns="http://www.w3.org/2000/svg" xml:space="preserve" style="fill-rule:evenodd;clip-rule:evenodd;stroke-linejoin:round;stroke-miterlimit:2" viewBox="0 0 633 524">
  <path d="M99.804 298.157c-1.781-9.508-12.665-67.624 3.788-120.851 70.879-229.303 368.559-233.244 456.492-28.937 93.349 216.891-154.426 443.453-367.657 292.803-3.608-2.549-127.003-1.083-138.047-.952-37.512.446-46.323 44.908-13.81 59.566 5.833 2.63 6.23 2.459 581.816 2.231 7.107-.003 11.55 8.523 9.116 14.273-3.852 9.102-16.871 6.713-18.121 6.711-28.525-.044-557.168-.006-558.999-.017-40.628-.258-60.671-36.898-52.633-64.638 13.528-46.688 63.343-38.507 82.631-38.551 80.605-.182 82.743.523 81.901-1.491-4.209-10.068-43.017-28.196-66.476-120.147Z" style="fill:#323131"/>
  <path d="M352.811 46.126c5.797 10.822 21.627 28.346 96.817 132.941 9.972 13.872 18.026-2.716 20.648-3.226 41.467-8.07 61.827-1.265 59.681-17.537-1.045-7.926-6.793-10.086-38.515-5.562-29.24 4.169-32.893 9.661-35.966.46-2.063-6.179 67.794-27.451 70.501-22.641 26.545 47.151 29.412 80.643 27.583 81.173-9.133 2.646-97.029-10.957-102.15-7.448-5.826 3.993-4.822 16.617 3.009 17.733 51.342 7.317 102.409 8.508 102.712 11.272 1.696 15.44.509 15.959-.763 15.896-30.719-1.511-78.575-17.752-84.883-12.82-5.206 4.071-5.747 15.26 2.979 17.543 43.76 11.446 81.879 13.235 81.471 17.306-1.196 11.924-1.525 18.522-7.554 18.578-81.968.764-191.065-46.196-196.849-54.65-9.188-13.43-113.395-165.749-115.517-167.425-6.535-5.162-19.403 5.268-14.206 13.265 11.853 18.239 105.783 152.328 105.196 154.191-.126.399-58.954 62.009-75.853 142.022-.401 1.897 1.414 9.514-6.498 4.583-8.732-5.442-71.675-42.365-127.135-128.623-3.782-5.883 1.538-57.406 4.82-52.86 2.712 3.756 9.372 21.306 49.168 72.848 4.535 5.873 42.756 53.313 48.832 54.323 7.269 1.209 15.327-9.089 9.959-15.156-9.189-10.385-81.925-92.585-100.567-141.174-1.076-2.804 15.692-41.2 18.483-35.8 7.07 13.681 22.341 43.235 104.563 161.625 7.252 10.441 21.976-3.083 16.276-11.516-22.178-32.809-88.103-121.735-108.766-170.159-1.676-3.927 9.441-15.725 11.052-13.998 8.762 9.4 113.79 150.078 118.095 150.651 7.213.961 16.245-8.417 10.827-15.612-56.894-75.548-58.611-74.056-115.258-149.846-5.212-6.973 79.164-59.716 85.158-51.082 18.991 27.358 159.176 220.475 163.306 221.544 6.634 1.717 17.951-7.024 11.568-15.451-12.75-16.831-159.459-210.504-154.507-213.983.545-.383 20.988-4.903 42.851-5.221 7.41-.108 48.765-.71 90.783 18.441 11.847 5.4.248 7.439-9.516 15.835-14.665 12.61-15.827 20.585-21.821 12.346-19.167-26.346-26.981-44.592-39.112-28.442-1.88 2.503-1.089 2.606-.905 5.657Z" style="fill:#ffffed"/>
  <path d="M465.454 358.875c34.456 6.209 34.689 4.011 53.867 7.592 2.026.378-4.9 15.882-14.906 17.956-53.023 10.986-130.304-10.284-193.162-39.917-1.194-.563-12.334-5.815-16.476-.891-9.032 10.737 3.522 16.546 4.815 17.145 130.286 60.293 192.832 42.005 186.572 47.285-12.492 10.535-24.299 31.817-94.734 23.743-56.53-6.479-123.69-33.136-123.091-38.547 4.163-37.607 32.357-95.255 37.035-92.983 43.877 21.312 76.395 39.323 160.08 58.617M361.509 262.959c139.137 61.826 189.061 37.933 185.579 49.21-5.746 18.611-13.462 34.873-15.732 34.934-76.834 2.041-220.724-59.354-216.492-65.571 1.718-2.524 20.205-29.683 24.511-29.256.404.04 20.368 9.818 22.134 10.683M190.318 410.311c-2.037-1.971-33.704-28.215-55.546-76.244-3.919-8.618-18.298-48.272-10.118-37.091 51.367 70.203 123.016 109.305 123.033 110.234.704 40.187 5.755 43.489 2.673 42.112-29.292-13.084-55.663-35.319-60.042-39.011M270.986 443.364c-1.386-5.309-3.414-10.918-3.904-25.189-.159-4.621 23.822 12.596 84.404 26.599 37.223 8.604 66.549 7.102 58.004 9.64-36.032 10.701-58.879 16.448-110.163 9.109-23.577-3.374-23.093-6.759-28.341-20.158ZM494.155 89.484c18.391 20.41 19.387 22.108 17.187 22.698-26.615 7.146-27.849 3.689-66.857 23.31-3.324 1.672-26.39-32.073-24.784-32.796 21.214-9.548 63.578-18.011 74.455-13.213ZM471.087 68.428c-1.314 2.211-13.567 1.983-32.587 7.296-15.694 4.384-21.588 7.606-22.147 7.779-5.167 1.603 13.243-14.973 27.266-23.886 12.396-7.879 12.552-.074 27.468 8.811" style="fill:#ffffed"/>
</svg>