<?xml version="1.0" encoding="UTF-8" standalone="no"?><!DOCTYPE svg PUBLIC "-//W3C//DTD SVG 1.1//EN" "http://www.w3.org/Graphics/SVG/1.1/DTD/svg11.dtd"><svg width="100%" height="100%" viewBox="0 0 525 525" version="1.1" xmlns="http://www.w3.org/2000/svg" xmlns:xlink="http://www.w3.org/1999/xlink" xml:space="preserve" xmlns:serif="http://www.serif.com/" style="fill-rule:evenodd;clip-rule:evenodd;stroke-linejoin:round;stroke-miterlimit:2;"><g><rect x="0" y="0" width="525" height="525" style="fill:#ebebeb;fill-opacity:0;"/><path d="M29.637,299.014c-1.781,-9.508 -12.665,-67.624 3.788,-120.851c70.879,-229.303 368.559,-233.244 456.492,-28.937c93.349,216.891 -154.426,443.453 -367.657,292.803c-3.608,-2.549 -42.003,-1.083 -53.047,-0.952c-37.512,0.446 -46.323,44.908 -13.81,59.566c1.788,0.806 4.699,1.349 5.525,1.708c1.869,0.811 34.223,0.681 311.291,0.523c7.107,-0.004 11.55,8.523 9.116,14.273c-3.852,9.102 -16.871,6.713 -18.121,6.711c-28.525,-0.044 -292.168,-0.006 -293.999,-0.017c-40.628,-0.258 -60.671,-36.898 -52.633,-64.638c13.528,-46.688 69.468,-29.457 82.631,-38.551c6.28,-4.339 -46.116,-29.687 -69.575,-121.638l-0.001,0Z" style="fill:#323131;"/><path d="M281.811,47.126c5.797,10.822 21.627,28.346 96.817,132.941c9.972,13.872 18.026,-2.716 20.648,-3.226c41.467,-8.07 61.827,-1.265 59.681,-17.537c-1.045,-7.926 -6.793,-10.086 -38.515,-5.562c-29.24,4.169 -32.893,9.661 -35.966,0.46c-2.063,-6.179 67.794,-27.451 70.501,-22.641c26.545,47.151 29.412,80.643 27.583,81.173c-9.133,2.646 -97.029,-10.957 -102.15,-7.448c-5.826,3.993 -4.822,16.617 3.009,17.733c51.342,7.317 102.409,8.508 102.712,11.272c1.696,15.44 0.509,15.959 -0.763,15.896c-30.719,-1.511 -78.575,-17.752 -84.883,-12.82c-5.206,4.071 -5.747,15.26 2.979,17.543c43.76,11.446 81.879,13.235 81.471,17.306c-1.196,11.924 -1.525,18.522 -7.554,18.578c-81.968,0.764 -191.065,-46.196 -196.849,-54.65c-9.188,-13.43 -113.395,-165.749 -115.517,-167.425c-6.535,-5.162 -19.403,5.268 -14.206,13.265c11.853,18.239 105.783,152.328 105.196,154.191c-0.126,0.399 -58.954,62.009 -75.853,142.022c-0.401,1.897 1.414,9.514 -6.498,4.583c-8.732,-5.442 -71.675,-42.365 -127.135,-128.623c-3.782,-5.883 1.538,-57.406 4.82,-52.86c2.712,3.756 9.372,21.306 49.168,72.848c4.535,5.873 42.756,53.313 48.832,54.323c7.269,1.209 15.327,-9.089 9.959,-15.156c-9.189,-10.385 -81.925,-92.585 -100.567,-141.174c-1.076,-2.804 15.692,-41.2 18.483,-35.8c7.07,13.681 22.341,43.235 104.563,161.625c7.252,10.441 21.976,-3.083 16.276,-11.516c-22.178,-32.809 -88.103,-121.735 -108.766,-170.159c-1.676,-3.927 9.441,-15.725 11.052,-13.998c8.762,9.4 113.79,150.078 118.095,150.651c7.213,0.961 16.245,-8.417 10.827,-15.612c-56.894,-75.548 -58.611,-74.056 -115.258,-149.846c-5.212,-6.973 79.164,-59.716 85.158,-51.082c18.991,27.358 159.176,220.475 163.306,221.544c6.634,1.717 17.951,-7.024 11.568,-15.451c-12.75,-16.831 -159.459,-210.504 -154.507,-213.983c0.545,-0.383 20.988,-4.903 42.851,-5.221c7.41,-0.108 48.765,-0.71 90.783,18.441c11.847,5.4 0.248,7.439 -9.516,15.835c-14.665,12.61 -15.827,20.585 -21.821,12.346c-19.167,-26.346 -26.981,-44.592 -39.112,-28.442c-1.88,2.503 -1.089,2.606 -0.905,5.657l0.003,-0.001Z" style="fill:#ffffed;"/><path d="M394.454,359.875c34.456,6.209 34.689,4.011 53.867,7.592c2.026,0.378 -4.9,15.882 -14.906,17.956c-53.023,10.986 -130.304,-10.284 -193.162,-39.917c-1.194,-0.563 -12.334,-5.815 -16.476,-0.891c-9.032,10.737 3.522,16.546 4.815,17.145c130.286,60.293 192.832,42.005 186.572,47.285c-12.492,10.535 -24.299,31.817 -94.734,23.743c-56.53,-6.479 -123.69,-33.136 -123.091,-38.547c4.163,-37.607 32.357,-95.255 37.035,-92.983c43.877,21.312 76.395,39.323 160.08,58.617m-103.945,-95.916c139.137,61.826 189.061,37.933 185.579,49.21c-5.746,18.611 -13.462,34.873 -15.732,34.934c-76.834,2.041 -220.724,-59.354 -216.492,-65.571c1.718,-2.524 20.205,-29.683 24.511,-29.256c0.404,0.04 20.368,9.818 22.134,10.683m-171.191,147.352c-2.037,-1.971 -33.704,-28.215 -55.546,-76.244c-3.919,-8.618 -18.298,-48.272 -10.118,-37.091c51.367,70.203 123.016,109.305 123.033,110.234c0.704,40.187 5.755,43.489 2.673,42.112c-29.292,-13.084 -55.663,-35.319 -60.042,-39.011m80.668,33.053c-1.386,-5.309 -3.414,-10.918 -3.904,-25.189c-0.159,-4.621 23.822,12.596 84.404,26.599c37.223,8.604 66.549,7.102 58.004,9.64c-36.032,10.701 -58.879,16.448 -110.163,9.109c-23.577,-3.374 -23.093,-6.759 -28.341,-20.158l0,-0.001Zm223.169,-353.88c18.391,20.41 19.387,22.108 17.187,22.698c-26.615,7.146 -27.849,3.689 -66.857,23.31c-3.324,1.672 -26.39,-32.073 -24.784,-32.796c21.214,-9.548 63.578,-18.011 74.455,-13.213l-0.001,0.001Zm-23.068,-21.056c-1.314,2.211 -13.567,1.983 -32.587,7.296c-15.694,4.384 -21.588,7.606 -22.147,7.779c-5.167,1.603 13.243,-14.973 27.266,-23.886c12.396,-7.879 12.552,-0.074 27.468,8.811" style="fill:#ffffed;"/></g></svg>