<?xml version="1.0" encoding="UTF-8" standalone="no"?><!DOCTYPE svg PUBLIC "-//W3C//DTD SVG 1.1//EN" "http://www.w3.org/Graphics/SVG/1.1/DTD/svg11.dtd"><svg width="100%" height="100%" viewBox="0 0 64 64" version="1.1" xmlns="http://www.w3.org/2000/svg" xmlns:xlink="http://www.w3.org/1999/xlink" xml:space="preserve" xmlns:serif="http://www.serif.com/" style="fill-rule:evenodd;clip-rule:evenodd;stroke-linejoin:round;stroke-miterlimit:2;"><g><rect x="-0" y="0" width="64" height="64" style="fill:#ebebeb;fill-opacity:0;"/><path d="M3.613,36.451c-0.217,-1.159 -1.544,-8.244 0.462,-14.732c8.64,-27.953 44.929,-28.434 55.649,-3.528c11.38,26.44 -18.825,54.059 -44.819,35.694c-0.44,-0.311 -5.12,-0.132 -6.467,-0.116c-4.573,0.054 -5.647,5.474 -1.684,7.261c0.218,0.098 0.573,0.165 0.674,0.208c0.228,0.099 4.172,0.083 37.948,0.064c0.866,-0 1.408,1.039 1.111,1.74c-0.47,1.11 -2.057,0.818 -2.209,0.818c-3.477,-0.005 -35.617,-0.001 -35.84,-0.002c-4.953,-0.031 -7.396,-4.498 -6.416,-7.88c1.649,-5.691 8.469,-3.591 10.073,-4.7c0.766,-0.529 -5.622,-3.619 -8.482,-14.828l-0,0Z" style="fill:#323131;"/><path d="M34.354,5.745c0.707,1.319 2.636,3.456 11.802,16.206c1.216,1.691 2.197,-0.331 2.517,-0.393c5.055,-0.984 7.537,-0.154 7.275,-2.138c-0.127,-0.966 -0.828,-1.23 -4.695,-0.678c-3.564,0.508 -4.01,1.178 -4.384,0.056c-0.251,-0.753 8.264,-3.346 8.594,-2.76c3.236,5.748 3.585,9.831 3.362,9.895c-1.113,0.323 -11.828,-1.336 -12.453,-0.908c-0.71,0.487 -0.588,2.026 0.367,2.162c6.259,0.892 12.484,1.037 12.521,1.374c0.207,1.882 0.062,1.945 -0.093,1.938c-3.745,-0.184 -9.579,-2.164 -10.348,-1.563c-0.635,0.496 -0.701,1.86 0.363,2.139c5.335,1.395 9.981,1.613 9.932,2.11c-0.146,1.454 -0.186,2.258 -0.921,2.265c-9.992,0.093 -23.292,-5.632 -23.997,-6.662c-1.12,-1.637 -13.823,-20.206 -14.082,-20.41c-0.797,-0.629 -2.365,0.642 -1.732,1.617c1.445,2.223 12.895,18.57 12.824,18.797c-0.015,0.049 -7.187,7.559 -9.247,17.313c-0.049,0.231 0.172,1.16 -0.792,0.559c-1.064,-0.663 -8.738,-5.164 -15.498,-15.68c-0.461,-0.717 0.187,-6.998 0.588,-6.444c0.331,0.458 1.142,2.597 5.994,8.881c0.553,0.716 5.212,6.499 5.953,6.622c0.886,0.147 1.868,-1.108 1.214,-1.848c-1.12,-1.266 -9.987,-11.287 -12.26,-17.21c-0.131,-0.342 1.913,-5.022 2.253,-4.364c0.862,1.668 2.723,5.271 12.747,19.703c0.884,1.273 2.679,-0.376 1.984,-1.404c-2.704,-4 -10.74,-14.84 -13.259,-20.743c-0.204,-0.479 1.151,-1.917 1.347,-1.706c1.068,1.146 13.872,18.295 14.396,18.365c0.879,0.117 1.98,-1.026 1.32,-1.903c-6.936,-9.21 -7.145,-9.028 -14.05,-18.267c-0.635,-0.85 9.65,-7.28 10.381,-6.227c2.315,3.335 19.404,26.877 19.908,27.007c0.809,0.209 2.188,-0.856 1.41,-1.884c-1.554,-2.052 -19.439,-25.661 -18.835,-26.086c0.066,-0.047 2.559,-0.598 5.224,-0.636c0.903,-0.013 5.945,-0.087 11.067,2.248c1.444,0.658 0.03,0.907 -1.16,1.93c-1.788,1.537 -1.929,2.509 -2.66,1.505c-2.337,-3.212 -3.289,-5.436 -4.768,-3.467c-0.229,0.305 -0.133,0.318 -0.11,0.69l0,-0Z" style="fill:#ffffed;"/><path d="M48.086,43.87c4.2,0.757 4.229,0.489 6.567,0.926c0.247,0.046 -0.597,1.936 -1.817,2.189c-6.464,1.339 -15.885,-1.254 -23.547,-4.866c-0.146,-0.069 -1.504,-0.709 -2.009,-0.109c-1.101,1.309 0.429,2.017 0.587,2.09c15.882,7.35 23.507,5.121 22.744,5.764c-1.523,1.284 -2.962,3.879 -11.549,2.894c-6.891,-0.79 -15.078,-4.039 -15.005,-4.699c0.507,-4.584 3.944,-11.612 4.515,-11.335c5.349,2.598 9.313,4.794 19.515,7.146m-12.671,-11.693c16.961,7.537 23.047,4.624 22.623,5.999c-0.7,2.269 -1.641,4.251 -1.918,4.259c-9.366,0.249 -26.907,-7.236 -26.391,-7.993c0.209,-0.308 2.463,-3.618 2.988,-3.566c0.049,0.005 2.483,1.197 2.698,1.302m-20.869,17.963c-0.248,-0.24 -4.109,-3.44 -6.771,-9.295c-0.478,-1.051 -2.231,-5.885 -1.233,-4.522c6.262,8.558 14.996,13.325 14.998,13.438c0.086,4.899 0.702,5.302 0.326,5.134c-3.571,-1.595 -6.786,-4.306 -7.319,-4.756m9.834,4.029c-0.169,-0.647 -0.416,-1.331 -0.476,-3.071c-0.019,-0.563 2.904,1.536 10.289,3.243c4.538,1.049 8.113,0.866 7.071,1.175c-4.392,1.305 -7.178,2.005 -13.429,1.11c-2.874,-0.411 -2.815,-0.824 -3.455,-2.457l0,-0Zm27.205,-43.14c2.242,2.488 2.363,2.695 2.095,2.767c-3.244,0.871 -3.395,0.45 -8.15,2.842c-0.405,0.204 -3.217,-3.91 -3.021,-3.998c2.586,-1.164 7.75,-2.196 9.076,-1.611l-0,0Zm-2.812,-2.567c-0.16,0.27 -1.654,0.242 -3.973,0.889c-1.913,0.534 -2.632,0.927 -2.7,0.948c-0.63,0.195 1.614,-1.825 3.324,-2.912c1.511,-0.96 1.53,-0.009 3.348,1.074" style="fill:#ffffed;"/></g></svg>